# xmcd CD database file
#
# Track frame offsets:
#	150
#	31773
#	43163
#	77526
#	92400
#	122942
#	149804
#	175947
#	193455
#	208180
#	241342
#	255237
#	291764
#
# Disc length: 4247 seconds
#
# Revision: 0
# Processed by: cddbd v1.5.2PL0 Copyright (c) Steve Scherf et al.
# Submitted via: CDex 1.85
#
DISCID=bd10950d
DTITLE=Various Artist - The Number 1 Jazz  Beatles Album
DYEAR=2013
DGENRE=Jazz
TTITLE0=Eleanor Rigby - Chick Corea
TTITLE1=Martha My Dear - Madleine Peyroux
TTITLE2=With a Little Help for my Friends
TTITLE3=I've Just seen a Face
TTITLE4=Can't Buy me Love
TTITLE5=She's Leaving Home
TTITLE6=Yesterday
TTITLE7=In My Life - Diana Krall
TTITLE8=Let it Be - Gregory Porter Milos Karadaglic
TTITLE9=I Want to Hold Your Hand
TTITLE10=Michelle
TTITLE11=Norwegian Wood (This Bird has Flown) - Herbie Hanckok
TTITLE12=The Long and Winding Road - George Benson
EXTD=YEAR: 2013
EXTT0=
EXTT1=
EXTT2=
EXTT3=
EXTT4=
EXTT5=
EXTT6=
EXTT7=
EXTT8=
EXTT9=
EXTT10=
EXTT11=
EXTT12=
PLAYORDER=
